<svg xmlns="http://www.w3.org/2000/svg" width="196.27" height="33.9" viewBox="0 0 196.27 33.9">
  <g id="Group_7965" data-name="Group 7965" transform="translate(-6 -20.766)">
    <g id="Group_7964" data-name="Group 7964" transform="translate(6 20.766)">
      <path id="Path_20849" data-name="Path 20849" d="M23.732,20.766v7.668h-10.8v1.929h10.8V38.28h-10.8L6,54.666l.014-33.9Z" transform="translate(-6 -20.766)" fill="#1d3a6a"/>
      <path id="Path_20850" data-name="Path 20850" d="M74.513,44.362V21.051h3.3V41.362h11.1v3Z" transform="translate(-53.1 -20.962)" fill="#1d3a6a"/>
      <path id="Path_20851" data-name="Path 20851" d="M126.926,21.051h3.315v13.38a14.271,14.271,0,0,0,.243,3.165,4.09,4.09,0,0,0,.809,1.616,6.508,6.508,0,0,0,2.449,1.817,8.18,8.18,0,0,0,3.216.6,7.3,7.3,0,0,0,4.883-1.567,5.15,5.15,0,0,0,1.848-4.132V21.051H147V36.03a7.989,7.989,0,0,1-2.783,6.324,10.665,10.665,0,0,1-7.265,2.424,11.717,11.717,0,0,1-4.782-.941,9.487,9.487,0,0,1-3.6-2.758,6.49,6.49,0,0,1-1.276-2.416,16.437,16.437,0,0,1-.373-4.1Z" transform="translate(-89.133 -20.962)" fill="#1d3a6a"/>
      <path id="Path_20852" data-name="Path 20852" d="M206.789,44.362V21.051H220.8v2.966H210.089v7.065H220.5V34.1H210.089v7.265h11.065v3Z" transform="translate(-144.036 -20.962)" fill="#1d3a6a"/>
      <path id="Path_20853" data-name="Path 20853" d="M266.175,44.362V21.051h2.9l15.347,18.1v-18.1h3.317V44.362h-2.966l-15.3-18.113V44.362Z" transform="translate(-184.862 -20.962)" fill="#1d3a6a"/>
      <path id="Path_20854" data-name="Path 20854" d="M352.428,44.362V24.083h-8.566V21.051h20.445v3.032h-8.564V44.362Z" transform="translate(-238.269 -20.962)" fill="#1d3a6a"/>
      <g id="Group_7957" data-name="Group 7957" transform="translate(136.525 0.089)">
        <g id="Group_7956" data-name="Group 7956">
          <path id="Path_20855" data-name="Path 20855" d="M442.836,44.362V21.051h3.3V41.362h11.1v3Z" transform="translate(-442.836 -21.051)" fill="#1d3a6a"/>
        </g>
      </g>
      <g id="Group_7959" data-name="Group 7959" transform="translate(154.608 0.089)">
        <g id="Group_7958" data-name="Group 7958">
          <path id="Path_20856" data-name="Path 20856" d="M500.7,44.362V21.051h3.332V44.362Z" transform="translate(-500.695 -21.051)" fill="#1d3a6a"/>
        </g>
      </g>
      <g id="Group_7961" data-name="Group 7961" transform="translate(163.89 0.089)">
        <g id="Group_7960" data-name="Group 7960">
          <path id="Path_20857" data-name="Path 20857" d="M530.392,44.362V21.051h13.264v2.966h-9.964v6.9h9.665v3h-9.665V44.362Z" transform="translate(-530.392 -21.051)" fill="#1d3a6a"/>
        </g>
      </g>
      <g id="Group_7963" data-name="Group 7963" transform="translate(181.905 0.089)">
        <g id="Group_7962" data-name="Group 7962">
          <path id="Path_20858" data-name="Path 20858" d="M588.037,44.362V21.051h14.014v2.966H591.337v7.065h10.414V34.1H591.337v7.265H602.4v3Z" transform="translate(-588.037 -21.051)" fill="#1d3a6a"/>
        </g>
      </g>
    </g>
  </g>
</svg>
