<svg xmlns="http://www.w3.org/2000/svg" width="220.571" height="29.401" viewBox="0 0 220.571 29.401">
  <g id="Group_7944" data-name="Group 7944" transform="translate(-6 -33.146)">
    <g id="Group_7940" data-name="Group 7940" transform="translate(180.859 33.146)">
      <path id="Path_20807" data-name="Path 20807" d="M506.66,73.548l3.359,1.459-1.556,1.6Z" transform="translate(-505.673 -59.357)" fill="#231f20"/>
      <path id="Path_20808" data-name="Path 20808" d="M525.867,73.731l-4.431,1.275,1.491,2.045Z" transform="translate(-515.259 -59.476)" fill="#231f20"/>
      <g id="Group_7939" data-name="Group 7939" transform="translate(16.9)">
        <path id="Path_20809" data-name="Path 20809" d="M558.842,49.551v-4.6h-5.807a.209.209,0,0,0-.122.379Z" transform="translate(-552.524 -40.803)" fill="#231f20"/>
        <path id="Path_20810" data-name="Path 20810" d="M555.405,33.146h-3.438V37.3a.213.213,0,0,0,.387.124Z" transform="translate(-551.967 -33.146)" fill="#231f20"/>
      </g>
      <path id="Path_20811" data-name="Path 20811" d="M503.889,44.948v7.463l12.13-1.689.046,3.967s.031.782.031,1.091a6.283,6.283,0,0,1-12.245,1.982c.011,1.529.061,6.166.061,6.166s0,.017,0,.026a6.04,6.04,0,0,0,2.273,4.231,10.178,10.178,0,0,0,6.66,2.018,8.275,8.275,0,0,0,6-2.266,8.066,8.066,0,0,0,2.342-6.079V45.239a.291.291,0,0,0-.291-.291Z" transform="translate(-503.85 -40.803)" fill="#231f20"/>
    </g>
    <g id="Group_7943" data-name="Group 7943" transform="translate(6 37.034)">
      <g id="Group_7941" data-name="Group 7941" transform="translate(109.706 0.296)">
        <path id="Path_20812" data-name="Path 20812" d="M318.35,69.554V45.06h4.178L335.8,66.922V45.06h2.7V69.554h-4.178l-13.275-21.9v21.9Z" transform="translate(-318.35 -45.06)" fill="#626366"/>
        <path id="Path_20813" data-name="Path 20813" d="M399.873,69.554V45.06h2.73V69.554Z" transform="translate(-371.24 -45.06)" fill="#626366"/>
        <path id="Path_20814" data-name="Path 20814" d="M431.7,69.554V45.06h4.178l13.275,21.862V45.06h2.7V69.554h-4.178L434.4,47.659v21.9Z" transform="translate(-391.89 -45.06)" fill="#626366"/>
        <path id="Path_20815" data-name="Path 20815" d="M569.647,69.554l9.047-24.494h4.458l9.1,24.494h-2.8l-2.336-6.267H574.73l-2.287,6.267Zm5.988-8.686h10.611l-4.886-13.209h-.872Z" transform="translate(-481.384 -45.06)" fill="#626366"/>
      </g>
      <g id="Group_7942" data-name="Group 7942">
        <path id="Path_20816" data-name="Path 20816" d="M6,69.554V45.06h6.629V69.554Z" transform="translate(-6 -44.764)" fill="#626366"/>
        <path id="Path_20817" data-name="Path 20817" d="M41.979,69.554V45.06H60.387v5.462H48.542v4.244h11.5v4.722h-11.5v4.606H60.65v5.462Z" transform="translate(-29.342 -44.764)" fill="#626366"/>
        <path id="Path_20818" data-name="Path 20818" d="M110.463,69.554V45.06h6.629v18.8h10.956v5.692Z" transform="translate(-73.773 -44.764)" fill="#626366"/>
        <path id="Path_20819" data-name="Path 20819" d="M161.033,69.554V50.522h-6.3V45.06h19.214v5.462h-6.268V69.554Z" transform="translate(-102.494 -44.764)" fill="#626366"/>
        <path id="Path_20820" data-name="Path 20820" d="M218.721,61.424h6.3v.247a2.175,2.175,0,0,0,.708,1.859,4.359,4.359,0,0,0,2.5.526h1.644a3.972,3.972,0,0,0,2.1-.4,1.587,1.587,0,0,0,.6-1.423V61.161a1.5,1.5,0,0,0-.477-1.25,4.883,4.883,0,0,0-2.155-.576l-5.33-.576a6.578,6.578,0,0,1-4.351-1.867,6.659,6.659,0,0,1-1.374-4.565V50.813a8.078,8.078,0,0,1,.543-3.051,5.431,5.431,0,0,1,1.579-2.2,5.2,5.2,0,0,1,2.154-1.045,17.441,17.441,0,0,1,3.784-.3h3.932a9.119,9.119,0,0,1,5.61,1.48,5.055,5.055,0,0,1,1.941,4.277v1.678h-6.3v-.263a1.9,1.9,0,0,0-.518-1.53,3.024,3.024,0,0,0-1.867-.428H228.23a4.35,4.35,0,0,0-2.147.37,1.392,1.392,0,0,0-.584,1.275V52.1q0,1.349,2.649,1.646l4.853.543a7.966,7.966,0,0,1,4.689,1.834,5.443,5.443,0,0,1,1.546,4.137v2.353a6.455,6.455,0,0,1-1.892,4.869,7.011,7.011,0,0,1-5.083,1.826h-5.346q-4.294,0-6.243-1.481a5.528,5.528,0,0,1-1.949-4.7Z" transform="translate(-144.007 -44.217)" fill="#626366"/>
      </g>
    </g>
  </g>
</svg>
