<svg xmlns="http://www.w3.org/2000/svg" width="220" height="21.454" viewBox="0 0 220 21.454">
  <g id="Group_7969" data-name="Group 7969" transform="translate(-6 -44.38)">
    <g id="Group_7968" data-name="Group 7968" transform="translate(6 44.38)">
      <path id="Path_20859" data-name="Path 20859" d="M15.482,45.4h-7.2A2.264,2.264,0,0,0,6,47.677V64.033a2.282,2.282,0,0,0,4.564,0V59.5h3.645l4.444,5.63A2.731,2.731,0,0,0,20.9,66.315a2.123,2.123,0,0,0,2.163-2.1,2.66,2.66,0,0,0-.741-1.748l-3.171-3.852A6.331,6.331,0,0,0,23.305,52.3V52.24A6.511,6.511,0,0,0,21.527,47.5,8.268,8.268,0,0,0,15.482,45.4Zm3.2,7.141c0,1.748-1.274,2.934-3.5,2.934H10.564V49.514H15.1c2.222,0,3.585,1.008,3.585,2.963Z" transform="translate(-6 -45.039)" fill="#ee3f5a"/>
      <path id="Path_20860" data-name="Path 20860" d="M81.077,62.078H71.683V57.722H79.6a2.024,2.024,0,0,0,2.044-2.015A2.049,2.049,0,0,0,79.6,53.662H71.683V49.454h9.246a2.024,2.024,0,0,0,2.044-2.015A2.049,2.049,0,0,0,80.929,45.4h-11.5a2.264,2.264,0,0,0-2.282,2.282V63.856a2.264,2.264,0,0,0,2.282,2.282H81.077a2.024,2.024,0,0,0,2.044-2.015A2.049,2.049,0,0,0,81.077,62.078Z" transform="translate(-45.728 -45.039)" fill="#ee3f5a"/>
      <path id="Path_20861" data-name="Path 20861" d="M132.827,46.272a2.78,2.78,0,0,0-2.637-1.807h-.267a2.819,2.819,0,0,0-2.667,1.807L120.026,62.6a2.424,2.424,0,0,0-.266.978,2.1,2.1,0,0,0,2.1,2.133,2.241,2.241,0,0,0,2.1-1.422l1.452-3.408h9.127l1.392,3.259a2.324,2.324,0,0,0,2.193,1.57,2.162,2.162,0,0,0,2.163-2.193,2.222,2.222,0,0,0-.236-.918Zm-5.719,10.579,2.874-6.845,2.874,6.845Z" transform="translate(-79.908 -44.435)" fill="#ee3f5a"/>
      <path id="Path_20862" data-name="Path 20862" d="M201.614,61.66H193.17V47.169a2.282,2.282,0,0,0-4.564,0V63.526a2.264,2.264,0,0,0,2.282,2.282h10.726a2.074,2.074,0,1,0,0-4.148Z" transform="translate(-124.636 -44.71)" fill="#ee3f5a"/>
      <path id="Path_20863" data-name="Path 20863" d="M272.385,53.173c-3.585-.919-4.474-1.363-4.474-2.727v-.059c0-1.008.919-1.808,2.667-1.808a8.63,8.63,0,0,1,4.356,1.393,2.187,2.187,0,0,0,1.156.326,2.111,2.111,0,0,0,1.126-3.911,12.039,12.039,0,0,0-6.578-1.837c-4.238,0-7.26,2.489-7.26,6.252v.06c0,4.119,2.7,5.274,6.874,6.341,3.467.889,4.178,1.481,4.178,2.637V59.9c0,1.215-1.126,1.956-2.993,1.956a8.746,8.746,0,0,1-5.3-1.867,2.195,2.195,0,0,0-1.3-.415,2.1,2.1,0,0,0-2.133,2.1,2.132,2.132,0,0,0,.859,1.719,13.388,13.388,0,0,0,7.793,2.489c4.475,0,7.616-2.311,7.616-6.43V59.4C278.964,55.78,276.593,54.269,272.385,53.173Z" transform="translate(-172.771 -44.49)" fill="#ee3f5a"/>
      <path id="Path_20864" data-name="Path 20864" d="M334.5,59.492a2.138,2.138,0,0,0-1.363.5,6.656,6.656,0,0,1-4.5,1.63c-3.556,0-6.015-2.963-6.015-6.519v-.059a6.145,6.145,0,0,1,6.015-6.46,6.821,6.821,0,0,1,4.237,1.482,2.4,2.4,0,0,0,1.363.444,2.226,2.226,0,0,0,2.252-2.222,2.282,2.282,0,0,0-.889-1.807,10.981,10.981,0,0,0-6.934-2.1,10.542,10.542,0,0,0-10.815,10.727v.059a10.929,10.929,0,0,0,18.015,8.06,2.106,2.106,0,0,0-1.363-3.734Z" transform="translate(-208.599 -44.38)" fill="#ee3f5a"/>
      <path id="Path_20865" data-name="Path 20865" d="M398.143,44.888a2.264,2.264,0,0,0-2.281,2.281v6.1h-8.415v-6.1a2.282,2.282,0,0,0-4.563,0V63.7a2.282,2.282,0,0,0,4.563,0V57.481h8.415V63.7a2.282,2.282,0,0,0,4.563,0V47.169A2.264,2.264,0,0,0,398.143,44.888Z" transform="translate(-250.854 -44.71)" fill="#ee3f5a"/>
      <path id="Path_20866" data-name="Path 20866" d="M541.2,64.957a3.518,3.518,0,0,0-3.625,3.518v.02a3.617,3.617,0,0,0,7.231-.02v-.02A3.486,3.486,0,0,0,541.2,64.957Zm1.785,3.535a1.781,1.781,0,0,1-1.786,1.854,1.809,1.809,0,0,1-1.8-1.871v-.017a1.781,1.781,0,0,1,1.786-1.854,1.809,1.809,0,0,1,1.8,1.871Z" transform="translate(-351.356 -57.748)" fill="#a3929e"/>
      <path id="Path_20867" data-name="Path 20867" d="M471.374,65.554a3.721,3.721,0,0,0-2.064-.6,3.518,3.518,0,0,0-3.625,3.518v.02a3.438,3.438,0,0,0,1.542,2.9,3.719,3.719,0,0,0,2.063.6,3.518,3.518,0,0,0,3.625-3.518v-.02A3.438,3.438,0,0,0,471.374,65.554Zm-3.868,2.9a1.781,1.781,0,0,1,1.786-1.854,1.809,1.809,0,0,1,1.8,1.871v.017a1.781,1.781,0,0,1-1.786,1.854,1.809,1.809,0,0,1-1.8-1.871Z" transform="translate(-304.649 -57.748)" fill="#a3929e"/>
      <path id="Path_20868" data-name="Path 20868" d="M480.778,44.38a10.745,10.745,0,0,0-10.891,8.912h-3.452a11.054,11.054,0,0,0-21.895,1.815v.059a10.627,10.627,0,0,0,10.993,10.668,10.772,10.772,0,0,0,10.683-7.949h3.862a11.075,11.075,0,0,0,21.694-2.778v-.059A10.627,10.627,0,0,0,480.778,44.38ZM461.815,55.166a6.2,6.2,0,0,1-6.222,6.46,6.3,6.3,0,0,1-6.282-6.519v-.059a6.2,6.2,0,0,1,6.222-6.46,6.3,6.3,0,0,1,6.282,6.519Zm25.185,0a6.2,6.2,0,0,1-6.222,6.46,6.3,6.3,0,0,1-6.282-6.519v-.059a6.2,6.2,0,0,1,6.222-6.46A6.3,6.3,0,0,1,487,55.107Z" transform="translate(-290.911 -44.38)" fill="#ee3f5a"/>
      <path id="Path_20869" data-name="Path 20869" d="M603.955,61.66H595.51V47.169a2.282,2.282,0,0,0-4.563,0V63.526a2.264,2.264,0,0,0,2.281,2.282h10.727a2.074,2.074,0,1,0,0-4.148Z" transform="translate(-386.029 -44.71)" fill="#ee3f5a"/>
    </g>
  </g>
</svg>
