<svg xmlns="http://www.w3.org/2000/svg" width="220" height="17.176" viewBox="0 0 220 17.176">
  <g id="Group_7955" data-name="Group 7955" transform="translate(-10 -25.797)">
    <g id="Group_7954" data-name="Group 7954" transform="translate(10 25.797)">
      <path id="Path_20836" data-name="Path 20836" d="M10,35.83V28.024a1.827,1.827,0,0,1,3.654,0v7.711c0,2.7,1.352,4.1,3.582,4.1s3.582-1.352,3.582-3.986V28.024a1.827,1.827,0,0,1,3.654,0v7.687c0,5.03-2.823,7.5-7.283,7.5S10,40.717,10,35.83Z" transform="translate(-10 -26.056)" fill="#25006f"/>
      <path id="Path_20837" data-name="Path 20837" d="M61.282,28.425A1.813,1.813,0,0,1,63.109,26.6h4.959c3.962,0,6.358,2.348,6.358,5.741v.048c0,3.843-2.99,5.836-6.714,5.836H64.936v3.3a1.827,1.827,0,1,1-3.654,0Zm6.548,6.549c1.827,0,2.895-1.091,2.895-2.515v-.048c0-1.637-1.139-2.515-2.966-2.515H64.936v5.077Z" transform="translate(-43.085 -26.314)" fill="#25006f"/>
      <path id="Path_20838" data-name="Path 20838" d="M103.76,41.019a1.707,1.707,0,0,1-.688-1.376,1.68,1.68,0,0,1,1.708-1.684,1.753,1.753,0,0,1,1.044.332,7.006,7.006,0,0,0,4.247,1.495c1.494,0,2.4-.593,2.4-1.566v-.047c0-.926-.57-1.4-3.345-2.112-3.345-.854-5.5-1.78-5.5-5.077v-.047c0-3.014,2.42-5.006,5.813-5.006A9.639,9.639,0,0,1,114.7,27.4a1.664,1.664,0,0,1,.807,1.447,1.681,1.681,0,0,1-1.709,1.684,1.75,1.75,0,0,1-.925-.261,6.911,6.911,0,0,0-3.488-1.115c-1.4,0-2.135.64-2.135,1.447v.048c0,1.091.711,1.447,3.582,2.182,3.37.878,5.267,2.089,5.267,4.983v.047c0,3.3-2.515,5.148-6.1,5.148A10.717,10.717,0,0,1,103.76,41.019Z" transform="translate(-70.046 -25.883)" fill="#25006f"/>
      <path id="Path_20839" data-name="Path 20839" d="M146.665,34.432v-.047a8.44,8.44,0,0,1,8.66-8.588,8.794,8.794,0,0,1,5.551,1.684,1.828,1.828,0,0,1,.711,1.447,1.782,1.782,0,0,1-1.8,1.78,1.923,1.923,0,0,1-1.092-.356,5.46,5.46,0,0,0-3.393-1.187,4.921,4.921,0,0,0-4.816,5.172v.047A4.933,4.933,0,0,0,155.3,39.6a5.331,5.331,0,0,0,3.606-1.305,1.692,1.692,0,1,1,2.183,2.586,8.751,8.751,0,0,1-14.424-6.453Z" transform="translate(-98.171 -25.797)" fill="#25006f"/>
      <path id="Path_20840" data-name="Path 20840" d="M219.142,27.548a.947.947,0,0,1,.925-.949h5.291c3.749,0,6.216,1.992,6.216,5.267v.047c0,3.583-2.99,5.433-6.525,5.433h-4.033v5.029a.937.937,0,1,1-1.874,0Zm5.978,8.09c2.752,0,4.555-1.471,4.555-3.654v-.047c0-2.372-1.78-3.606-4.46-3.606h-4.2v7.307Z" transform="translate(-144.93 -26.314)" fill="#25006f"/>
      <path id="Path_20841" data-name="Path 20841" d="M256.366,41.627,263.1,26.894a1.226,1.226,0,0,1,1.187-.831h.1a1.2,1.2,0,0,1,1.162.831L272.285,41.6a1.278,1.278,0,0,1,.119.475.9.9,0,0,1-.9.9,1.022,1.022,0,0,1-.925-.687l-1.732-3.82h-9.111L258,42.338a.939.939,0,0,1-.9.64.85.85,0,0,1-.854-.854A1.078,1.078,0,0,1,256.366,41.627Zm11.743-4.864L264.29,28.27l-3.82,8.493Z" transform="translate(-168.869 -25.969)" fill="#25006f"/>
      <path id="Path_20842" data-name="Path 20842" d="M308.144,28.331h-4.817a.871.871,0,0,1-.877-.854.891.891,0,0,1,.877-.878h11.531a.892.892,0,0,1,.878.878.872.872,0,0,1-.878.854h-4.816V42.376a.949.949,0,0,1-1.9,0Z" transform="translate(-198.677 -26.314)" fill="#25006f"/>
      <path id="Path_20843" data-name="Path 20843" d="M349.455,27.212a.937.937,0,1,1,1.874,0v6.549h9.585V27.212a.937.937,0,1,1,1.874,0V42.159a.937.937,0,1,1-1.874,0V35.516h-9.585v6.643a.937.937,0,1,1-1.874,0Z" transform="translate(-229.003 -26.098)" fill="#25006f"/>
      <path id="Path_20844" data-name="Path 20844" d="M397.948,40.782a.845.845,0,0,1-.356-.713.906.906,0,0,1,.9-.925.832.832,0,0,1,.57.213,7.552,7.552,0,0,0,5.243,1.969c2.23,0,3.7-1.187,3.7-2.823v-.047c0-1.542-.831-2.42-4.319-3.156-3.819-.83-5.575-2.064-5.575-4.792v-.048c0-2.609,2.3-4.531,5.457-4.531a8.471,8.471,0,0,1,5.291,1.637.966.966,0,0,1,.4.76.9.9,0,0,1-.9.9.878.878,0,0,1-.546-.166,6.944,6.944,0,0,0-4.294-1.447c-2.16,0-3.535,1.186-3.535,2.681v.047c0,1.566.854,2.443,4.507,3.226,3.7.807,5.409,2.159,5.409,4.7v.048c0,2.847-2.372,4.7-5.67,4.7A9.708,9.708,0,0,1,397.948,40.782Z" transform="translate(-260.06 -25.883)" fill="#25006f"/>
      <path id="Path_20845" data-name="Path 20845" d="M443.058,27.212a.937.937,0,1,1,1.874,0v6.549h9.585V27.212a.937.937,0,1,1,1.874,0V42.159a.937.937,0,1,1-1.874,0V35.516h-9.585v6.643a.937.937,0,1,1-1.874,0Z" transform="translate(-289.392 -26.098)" fill="#25006f"/>
      <path id="Path_20846" data-name="Path 20846" d="M490.781,41.627l6.737-14.733a1.226,1.226,0,0,1,1.187-.831h.1a1.2,1.2,0,0,1,1.162.831L506.7,41.6a1.278,1.278,0,0,1,.119.475.9.9,0,0,1-.9.9,1.023,1.023,0,0,1-.925-.687l-1.732-3.82h-9.11l-1.732,3.867a.939.939,0,0,1-.9.64.85.85,0,0,1-.854-.854A1.078,1.078,0,0,1,490.781,41.627Zm11.743-4.864-3.819-8.493-3.82,8.493Z" transform="translate(-320.104 -25.969)" fill="#25006f"/>
      <path id="Path_20847" data-name="Path 20847" d="M546.293,27.212a.937.937,0,1,1,1.874,0V41.257h8.611a.871.871,0,0,1,.855.878.851.851,0,0,1-.855.854h-9.56a.947.947,0,0,1-.925-.949Z" transform="translate(-355.995 -26.098)" fill="#25006f"/>
      <path id="Path_20848" data-name="Path 20848" d="M584.586,41.627l6.737-14.733a1.225,1.225,0,0,1,1.187-.831h.1a1.2,1.2,0,0,1,1.163.831L600.5,41.6a1.271,1.271,0,0,1,.119.475.9.9,0,0,1-.9.9,1.023,1.023,0,0,1-.925-.687l-1.732-3.82h-9.11l-1.732,3.867a.939.939,0,0,1-.9.64.85.85,0,0,1-.854-.854A1.073,1.073,0,0,1,584.586,41.627Zm11.743-4.864-3.82-8.493-3.819,8.493Z" transform="translate(-380.623 -25.969)" fill="#25006f"/>
    </g>
  </g>
</svg>
