<svg xmlns="http://www.w3.org/2000/svg" width="13.368" height="13.969" viewBox="0 0 13.368 13.969">
  <path id="Path_20909" data-name="Path 20909" d="M273.189,511.845a.548.548,0,0,0-.508-.05l-5.935,2.444-5.934-2.444a.537.537,0,0,0-.509.05.547.547,0,0,0-.241.451v10.752a.543.543,0,0,0,.364.512l6.142,2.132a.574.574,0,0,0,.178.03.5.5,0,0,0,.15-.022l6.142-1.772a.541.541,0,0,0,.392-.521V512.3A.547.547,0,0,0,273.189,511.845Zm-12.043,1.26,5.058,2.084v9.228l-5.058-1.755Zm11.2,9.894-5.058,1.461v-9.271l5.058-2.084Z" transform="translate(-260.062 -511.753)" fill="#404040"/>
</svg>
