<svg xmlns="http://www.w3.org/2000/svg" width="18" height="18" viewBox="0 0 18 18">
  <g id="Group_7879" data-name="Group 7879" transform="translate(-168 -116)">
    <g id="Path_20773" data-name="Path 20773" transform="translate(-6.303 0)" fill="#00086f" stroke-miterlimit="10">
      <path d="M 185.3884429931641 123.1829376220703 L 180.3612823486328 123.1829376220703 C 179.9034576416016 123.1829376220703 179.531005859375 122.7959213256836 179.531005859375 122.320198059082 L 179.531005859375 117.3627395629883 C 179.531005859375 116.8870239257813 179.9034576416016 116.4999923706055 180.3612823486328 116.4999923706055 L 185.3884429931641 116.4999923706055 C 185.8462677001953 116.4999923706055 186.2187194824219 116.8870239257813 186.2187194824219 117.3627395629883 L 186.2187194824219 122.320198059082 C 186.2187194824219 122.7959213256836 185.8462677001953 123.1829376220703 185.3884429931641 123.1829376220703 Z M 181.2398681640625 117.538818359375 C 180.7810211181641 117.538818359375 180.40771484375 117.9157485961914 180.40771484375 118.3790740966797 L 180.40771484375 121.6730728149414 C 180.40771484375 122.2552490234375 180.8753967285156 122.728889465332 181.4502868652344 122.728889465332 L 184.2994537353516 122.728889465332 C 184.8743286132813 122.728889465332 185.3420104980469 122.2552490234375 185.3420104980469 121.6730728149414 L 185.3420104980469 118.3790740966797 C 185.3420104980469 117.9157485961914 184.9687042236328 117.538818359375 184.5098571777344 117.538818359375 L 181.2398681640625 117.538818359375 Z" stroke="none"/>
      <path d="M 180.3612823486328 116.9999923706055 C 180.1822509765625 116.9999923706055 180.031005859375 117.1661148071289 180.031005859375 117.3627395629883 L 180.031005859375 117.8161087036133 C 180.2428283691406 117.3575439453125 180.7050476074219 117.038818359375 181.2398681640625 117.038818359375 L 184.5098571777344 117.038818359375 C 185.044677734375 117.038818359375 185.5068969726563 117.3575439453125 185.7187194824219 117.8161087036133 L 185.7187194824219 117.3627395629883 C 185.7187194824219 117.1661148071289 185.5674743652344 116.9999923706055 185.3884429931641 116.9999923706055 L 180.3612823486328 116.9999923706055 M 185.7187194824219 122.2825317382813 C 185.6596374511719 122.4219512939453 185.5809173583984 122.5510101318359 185.4860992431641 122.6660690307617 C 185.6192321777344 122.6190872192383 185.7187194824219 122.4796905517578 185.7187194824219 122.320198059082 L 185.7187194824219 122.2825317382813 M 180.3612823486328 115.9999923706055 L 185.3884429931641 115.9999923706055 C 186.1200256347656 115.9999923706055 186.7187194824219 116.6133346557617 186.7187194824219 117.3627395629883 L 186.7187194824219 122.320198059082 C 186.7187194824219 123.0696029663086 186.1200256347656 123.6829376220703 185.3884429931641 123.6829376220703 L 180.3612823486328 123.6829376220703 C 179.6297149658203 123.6829376220703 179.031005859375 123.0696029663086 179.031005859375 122.320198059082 L 179.031005859375 117.3627395629883 C 179.031005859375 116.6133346557617 179.6297149658203 115.9999923706055 180.3612823486328 115.9999923706055 Z M 184.2994537353516 122.228889465332 C 184.5977325439453 122.228889465332 184.8420104980469 121.9786376953125 184.8420104980469 121.6730728149414 L 184.8420104980469 118.3790740966797 C 184.8420104980469 118.1920547485352 184.6924438476563 118.038818359375 184.5098571777344 118.038818359375 L 181.2398681640625 118.038818359375 C 181.0572967529297 118.038818359375 180.90771484375 118.1920547485352 180.90771484375 118.3790740966797 L 180.90771484375 121.6730728149414 C 180.90771484375 121.9786376953125 181.1520080566406 122.228889465332 181.4502868652344 122.228889465332 L 184.2994537353516 122.228889465332 Z" stroke="none" fill="#00086f"/>
    </g>
    <g id="Rectangle_2902" data-name="Rectangle 2902" transform="translate(168 119.402)" fill="#00086f" stroke="#00086f" stroke-miterlimit="10" stroke-width="1">
      <rect width="18" height="14.598" rx="2" stroke="none"/>
      <rect x="0.5" y="0.5" width="17" height="13.598" rx="1.5" fill="none"/>
    </g>
    <g id="Rectangle_2903" data-name="Rectangle 2903" transform="translate(168 119.402)" fill="#fff" stroke="#ff1d1d" stroke-miterlimit="10" stroke-width="1">
      <rect width="18" height="8.177" rx="2" stroke="none"/>
      <rect x="0.5" y="0.5" width="17" height="7.177" rx="1.5" fill="none"/>
    </g>
    <g id="Rectangle_2904" data-name="Rectangle 2904" transform="translate(175.286 125.368)" fill="#fff" stroke="#ff1d1d" stroke-miterlimit="10" stroke-width="1">
      <rect width="3.429" height="4.14" rx="1" stroke="none"/>
      <rect x="0.5" y="0.5" width="2.429" height="3.14" rx="0.5" fill="none"/>
    </g>
  </g>
</svg>
