<svg xmlns="http://www.w3.org/2000/svg" width="25.038" height="16.923" viewBox="0 0 25.038 16.923">
  <path id="Path_5669" data-name="Path 5669" d="M335.278,254.7c0-.566-.005-1.086-.014-1.568s-.016-1.024-.016-1.634a1.48,1.48,0,0,1,.03-.359,1.421,1.421,0,0,1,.182-.229,3.321,3.321,0,0,1,.343-.327q.2-.163.359-.294a.66.66,0,0,1,.2-.131q.127-.1.343-.278t.6-.49q.388-.31,1.075-.833a12.808,12.808,0,0,1,1.375-1.062,9.872,9.872,0,0,0,1.108-.833,5.1,5.1,0,0,1,.8-.6,3.91,3.91,0,0,0,.539-.343,4.714,4.714,0,0,1,.555-.392,1.568,1.568,0,0,1,.817-.294.543.543,0,0,1,.15.049.308.308,0,0,0,.079.049l-.03-.033a.879.879,0,0,1,.357.163,7.236,7.236,0,0,1,.64.457c.251.2.52.422.817.67s.569.506.83.768a4.167,4.167,0,0,0,.378.278.585.585,0,0,1,.308.474c-.479.457-.885.833-1.222,1.127s-.705.588-1.095.882c-.155.117-.283.172-.427.264l.158,0q.915.02,1.715.049c.534.025.942.035,1.225.035.629.044,1.383.054,2.254.03s1.77-.041,2.693-.065,1.843-.035,2.744-.049a22.277,22.277,0,0,1,2.4.084,1.15,1.15,0,0,1,.49.114,1.039,1.039,0,0,0,.389.114,3.726,3.726,0,0,0,.721.046,2.264,2.264,0,0,1,.389,0,.262.262,0,0,1,.2.114,1.94,1.94,0,0,1,.161.392,3.92,3.92,0,0,1,.212.98c.035.349.074.624.114.817.025.024.011.054-.03.1a.1.1,0,0,1-.068.033c.024.37.063.751.114,1.146a1.99,1.99,0,0,1-.016.882,1.425,1.425,0,0,1-.1.324.594.594,0,0,1-.131.229,1.04,1.04,0,0,1-.539.15c-.229.008-.474.008-.732,0a6.292,6.292,0,0,1-.8-.084,4.943,4.943,0,0,0-.7-.065q-1.536-.065-3.335-.049t-3.757-.082c-1.26-.044-2.5-.079-3.705-.114-.947-.024-1.794-.008-2.627.014l.267.264a5.534,5.534,0,0,0,1.435.947,1.415,1.415,0,0,1,.3.18,6.154,6.154,0,0,1,.572.457,8.082,8.082,0,0,1,.572.572.831.831,0,0,1,.259.49,5.244,5.244,0,0,1-.131,1.111c-.087.417-.191.811-.31,1.2a5.8,5.8,0,0,1-.389.961,1,1,0,0,1-.376.457,1.327,1.327,0,0,1-.327-.1c-.177-.063-.316-.12-.425-.163a11.785,11.785,0,0,1-1.617-.882,15.393,15.393,0,0,0-1.391-.817c-.28-.15-.574-.3-.879-.457a8.208,8.208,0,0,1-.852-.487.742.742,0,0,1-.52-.264,1.614,1.614,0,0,0-.425-.327,5.535,5.535,0,0,0-.526-.261c-.28-.131-.588-.28-.915-.457s-.64-.348-.945-.523a3.187,3.187,0,0,1-.656-.457,5.487,5.487,0,0,1-.618-.359,2.148,2.148,0,0,1-.457-.376.631.631,0,0,1-.2-.441c0-.131.005-.27.016-.425S335.278,254.855,335.278,254.7Z" transform="translate(-335.248 -245.029)" fill="#fff"/>
</svg>
