<svg xmlns="http://www.w3.org/2000/svg" width="25" height="25" viewBox="0 0 25 25">
  <g id="Group_7887" data-name="Group 7887" transform="translate(-367.937 -115)">
    <g id="Rectangle_2905" data-name="Rectangle 2905" transform="translate(367.937 115)" fill="#fff" stroke="#00086f" stroke-linecap="round" stroke-linejoin="round" stroke-width="1">
      <rect width="25" height="20.612" rx="1" stroke="none"/>
      <rect x="0.5" y="0.5" width="24" height="19.612" rx="0.5" fill="none"/>
    </g>
    <g id="Path_20776" data-name="Path 20776" transform="translate(-2.247 -2.259)" fill="#00086f" stroke-linecap="round" stroke-linejoin="round">
      <path d="M 388.6317749023438 134.0494384765625 L 376.7373657226563 134.0494384765625 C 376.6110534667969 132.6347198486328 375.4304809570313 131.5188446044922 373.989013671875 131.4950866699219 L 373.989013671875 123.635368347168 C 375.4304809570313 123.6116027832031 376.6110534667969 122.4957504272461 376.7373657226563 121.0810165405273 L 388.6317749023438 121.0810165405273 C 388.7580871582031 122.4957504272461 389.9386291503906 123.6116027832031 391.3800964355469 123.635368347168 L 391.3800964355469 131.4950866699219 C 389.9386291503906 131.5188446044922 388.7580871582031 132.6347198486328 388.6317749023438 134.0494384765625 Z" stroke="none"/>
      <path d="M 377.162353515625 121.5810089111328 C 376.8617248535156 122.8692016601563 375.805908203125 123.8703765869141 374.489013671875 124.0905151367188 L 374.489013671875 131.0399322509766 C 375.805908203125 131.2600708007813 376.8617248535156 132.2612609863281 377.162353515625 133.5494384765625 L 388.206787109375 133.5494384765625 C 388.5074157714844 132.2612609863281 389.5632019042969 131.2600708007813 390.8800964355469 131.0399322509766 L 390.8800964355469 124.0905151367188 C 389.5632019042969 123.8703765869141 388.5074157714844 122.8692016601563 388.206787109375 121.5810089111328 L 377.162353515625 121.5810089111328 M 376.2235412597656 120.5810089111328 L 389.1455688476563 120.5810089111328 C 389.1366577148438 120.6637420654297 389.1205749511719 120.7440948486328 389.1205749511719 120.8292083740234 C 389.1205749511719 122.10302734375 390.1532897949219 123.1357574462891 391.4271240234375 123.1357574462891 C 391.5818786621094 123.1357574462891 391.7330627441406 123.1190948486328 391.8800964355469 123.0899353027344 L 391.8800964355469 132.0405120849609 C 391.7330627441406 132.0113372802734 391.5818786621094 131.9946899414063 391.4271240234375 131.9946899414063 C 390.1532897949219 131.9946899414063 389.1205749511719 133.0274200439453 389.1205749511719 134.3012237548828 C 389.1205749511719 134.3863525390625 389.1366577148438 134.4667053222656 389.1455688476563 134.5494384765625 L 376.2235412597656 134.5494384765625 C 376.2324829101563 134.4667053222656 376.2485656738281 134.3863525390625 376.2485656738281 134.3012237548828 C 376.2485656738281 133.0274200439453 375.2158203125 131.9946899414063 373.9420166015625 131.9946899414063 C 373.7866516113281 131.9946899414063 373.6354370117188 132.0113372802734 373.489013671875 132.0405120849609 L 373.489013671875 123.0899353027344 C 373.6354370117188 123.1190948486328 373.7866516113281 123.1357574462891 373.9420166015625 123.1357574462891 C 375.2158203125 123.1357574462891 376.2485656738281 122.10302734375 376.2485656738281 120.8292083740234 C 376.2485656738281 120.7440948486328 376.2324829101563 120.6637420654297 376.2235412597656 120.5810089111328 Z" stroke="none" fill="#00086f"/>
    </g>
    <g id="Rectangle_2906" data-name="Rectangle 2906" transform="translate(374.423 121.783)" fill="#fff" stroke="#fff" stroke-linecap="round" stroke-linejoin="round" stroke-width="1">
      <rect width="12.029" height="2.73" rx="1.365" stroke="none"/>
      <rect x="0.5" y="0.5" width="11.029" height="1.73" rx="0.865" fill="none"/>
    </g>
    <line id="Line_10" data-name="Line 10" x2="5.915" transform="translate(377.48 126.161)" fill="#fff" stroke="#fff" stroke-linecap="round" stroke-linejoin="round" stroke-width="1"/>
    <g id="Path_20777" data-name="Path 20777" transform="translate(-11.72 -10.93)" fill="#ff1d1d" stroke-linecap="round" stroke-linejoin="round">
      <path d="M 397.39306640625 149.7459564208984 L 397.39306640625 142.5029907226563 L 400.8728637695313 142.5029907226563 L 400.8728637695313 149.7459106445313 L 399.4865417480469 148.3595733642578 L 399.1329956054688 148.0060119628906 L 398.7794494628906 148.3595733642578 L 397.39306640625 149.7459564208984 Z" stroke="none"/>
      <path d="M 397.89306640625 143.0029907226563 L 397.89306640625 148.5388336181641 L 398.4258728027344 148.0060119628906 C 398.6134338378906 147.8184814453125 398.8677978515625 147.7131195068359 399.1329956054688 147.7131195068359 C 399.3982238769531 147.7131195068359 399.652587890625 147.8184814453125 399.8401184082031 148.0060272216797 L 400.3728637695313 148.5387878417969 L 400.3728637695313 143.0029907226563 L 397.89306640625 143.0029907226563 M 396.89306640625 142.0029907226563 L 401.3728637695313 142.0029907226563 L 401.3728637695313 150.9297943115234 L 401.349609375 150.9297943115234 L 399.1329956054688 148.7131195068359 L 396.9163208007813 150.9297943115234 L 396.89306640625 150.9297943115234 L 396.89306640625 142.0029907226563 Z" stroke="none" fill="#ff1d1d"/>
    </g>
    <g id="Ellipse_812" data-name="Ellipse 812" transform="translate(383.395 126.534)" fill="#fff" stroke="#ff1d1d" stroke-linecap="round" stroke-linejoin="round" stroke-width="1">
      <circle cx="4.018" cy="4.018" r="4.018" stroke="none"/>
      <circle cx="4.018" cy="4.018" r="3.518" fill="none"/>
    </g>
  </g>
</svg>
