<svg xmlns="http://www.w3.org/2000/svg" width="24.341" height="32.354" viewBox="0 0 24.341 32.354">
  <path id="Path_85" data-name="Path 85" d="M177.171,4778.731a.5.5,0,0,1-.414-.219c-1.2-1.761-11.757-17.285-11.757-19.965a12.171,12.171,0,0,1,24.341,0c0,2.679-10.554,18.2-11.757,19.965A.5.5,0,0,1,177.171,4778.731Zm0-31.353A11.183,11.183,0,0,0,166,4758.547c0,1.729,6.681,12.185,11.17,18.794,4.487-6.609,11.168-17.066,11.168-18.794A11.182,11.182,0,0,0,177.171,4747.378Zm0,17.068a6.17,6.17,0,1,1,6.17-6.171A6.178,6.178,0,0,1,177.171,4764.446Z" transform="translate(-165 -4746.377)" fill="#ff1d1d"/>
</svg>
