<svg xmlns="http://www.w3.org/2000/svg" width="27.521" height="24.197" viewBox="0 0 27.521 24.197">
  <g id="Group_91" data-name="Group 91" transform="translate(-165 -4832.639)">
    <path id="Path_82" data-name="Path 82" d="M189.471,4832.639H168.05a3.054,3.054,0,0,0-3.05,3.051v18.1a3.055,3.055,0,0,0,3.05,3.051h21.421a3.055,3.055,0,0,0,3.05-3.051v-18.1A3.054,3.054,0,0,0,189.471,4832.639Zm2.335,21.146a2.338,2.338,0,0,1-2.335,2.335H168.05a2.338,2.338,0,0,1-2.335-2.335v-18.1a2.338,2.338,0,0,1,2.335-2.335h21.421a2.338,2.338,0,0,1,2.335,2.335Z" fill="#ff1d1d"/>
    <g id="Group_90" data-name="Group 90">
      <g id="Group_89" data-name="Group 89">
        <path id="Path_83" data-name="Path 83" d="M187.147,4849.674q-.144.576-.5,1.674a7.383,7.383,0,0,1-2.9,1.788,27.516,27.516,0,0,1-7.283-5.578,48.181,48.181,0,0,1-3.319-3.75,22.607,22.607,0,0,1-2.784-4.058,7.527,7.527,0,0,1,1.778-2.907,12.555,12.555,0,0,1,1.684-.493l2.723,3.195-.545,2.537a5.316,5.316,0,0,0,.9,2.117,19.036,19.036,0,0,0,1.593,1.715,4.5,4.5,0,0,0,2.516,1.531,14.747,14.747,0,0,0,2.928-.5Z" fill="#ff1d1d"/>
        <path id="Path_84" data-name="Path 84" d="M183.731,4853.424l-.1-.045a27.9,27.9,0,0,1-7.359-5.63,48.106,48.106,0,0,1-3.338-3.773,22.946,22.946,0,0,1-2.819-4.112l-.045-.1.034-.1a7.826,7.826,0,0,1,1.84-3.01l.089-.06a12.684,12.684,0,0,1,1.726-.506l.159-.038,2.915,3.42-.561,2.611a5.025,5.025,0,0,0,.846,1.958,18.791,18.791,0,0,0,1.566,1.684,4.3,4.3,0,0,0,2.35,1.454,14.171,14.171,0,0,0,2.846-.5l.13-.03,3.435,2.929-.04.16c-.1.386-.263.941-.509,1.7l-.065.106a7.675,7.675,0,0,1-3,1.852Zm-13.081-13.689a23.609,23.609,0,0,0,2.7,3.906,47.648,47.648,0,0,0,3.3,3.727,27.717,27.717,0,0,0,7.11,5.478,7.121,7.121,0,0,0,2.646-1.642c.2-.611.343-1.084.437-1.434l-2.976-2.538a11.818,11.818,0,0,1-2.883.48,4.69,4.69,0,0,1-2.678-1.607,18.811,18.811,0,0,1-1.622-1.751,5.581,5.581,0,0,1-.948-2.218l-.012-.056.529-2.462-2.529-2.968a12.291,12.291,0,0,0-1.436.42A7.319,7.319,0,0,0,170.65,4839.735Z" fill="#ff1d1d"/>
      </g>
    </g>
  </g>
</svg>
