<svg xmlns="http://www.w3.org/2000/svg" width="26.806" height="20.097" viewBox="0 0 26.806 20.097">
  <path id="Path_81" data-name="Path 81" d="M190.352,4891.939h-23.9a1.454,1.454,0,0,0-1.454,1.454v17.189a1.454,1.454,0,0,0,1.454,1.454h23.9a1.454,1.454,0,0,0,1.454-1.454v-17.189A1.454,1.454,0,0,0,190.352,4891.939Zm-24.686,1.14,8.912,8.919-8.912,8.9Zm.475,18.292,8.913-8.9,2.391,2.381a1.328,1.328,0,0,0,.965.4,1.281,1.281,0,0,0,.95-.4l2.4-2.381,8.9,8.9Zm25-.476-8.9-8.9,8.9-8.919Z" transform="translate(-165 -4891.939)" fill="#ff1d1d"/>
</svg>
