<svg xmlns="http://www.w3.org/2000/svg" width="18" height="18" viewBox="0 0 18 18">
  <g id="Group_7878" data-name="Group 7878" transform="translate(-89 -115)">
    <g id="Path_20778" data-name="Path 20778" transform="translate(89 125.741)" fill="#fff">
      <path d="M 17.33106994628906 6.75892448425293 L 0.6689308881759644 6.75892448425293 L 2.516587257385254 0.5000044107437134 L 15.48341274261475 0.5000044107437134 L 17.33106994628906 6.75892448425293 Z" stroke="none"/>
      <path d="M 2.890314102172852 1.000004291534424 L 1.337862014770508 6.25892448425293 L 16.66213798522949 6.25892448425293 L 15.10968589782715 1.000004291534424 L 2.890314102172852 1.000004291534424 M 2.142860412597656 4.291534423828125e-06 L 15.85713958740234 4.291534423828125e-06 L 18 7.25892448425293 L 0 7.25892448425293 L 2.142860412597656 4.291534423828125e-06 Z" stroke="none" fill="#ff1d1d"/>
    </g>
    <g id="Path_20772" data-name="Path 20772" transform="translate(-4.41)" fill="#00086f" stroke-miterlimit="10">
      <path d="M 102.410285949707 130.6573181152344 C 101.2848205566406 128.8380584716797 98.2841796875 123.9776916503906 97.83738708496094 123.1504974365234 L 97.83003997802734 123.1367416381836 C 97.42964172363281 122.3881454467773 97.21799468994141 121.5428619384766 97.21799468994141 120.6922760009766 C 97.21799468994141 117.8292465209961 99.54724884033203 115.5 102.410285949707 115.5 C 105.2733154296875 115.5 107.6025695800781 117.8292465209961 107.6025695800781 120.6922760009766 C 107.6025695800781 121.5428619384766 107.3909301757813 122.3881454467773 106.9905319213867 123.1367416381836 L 106.9823837280273 123.151969909668 C 106.5327911376953 123.9835205078125 103.5350799560547 128.8391571044922 102.410285949707 130.6573181152344 Z" stroke="none"/>
      <path d="M 102.410285949707 129.7070770263672 C 104.0103454589844 127.117919921875 106.1807174682617 123.5842132568359 106.5428161621094 122.9136734008789 L 106.5496368408203 122.9009246826172 C 106.9165420532227 122.2149505615234 107.1025695800781 121.4718551635742 107.1025695800781 120.6922760009766 C 107.1025695800781 118.1049423217773 104.9976196289063 116 102.410285949707 116 C 99.82294464111328 116 97.71799468994141 118.1049423217773 97.71799468994141 120.6922760009766 C 97.71799468994141 121.4718551635742 97.90402984619141 122.2149505615234 98.27092742919922 122.9009246826172 L 98.27679443359375 122.9118957519531 C 98.63603973388672 123.5779876708984 100.8088226318359 127.1156463623047 102.410285949707 129.7070770263672 M 102.410285949707 131.6071472167969 C 102.410285949707 131.6071472167969 97.92057800292969 124.3659973144531 97.38956451416016 123.3734359741211 L 97.38871002197266 123.3725662231445 L 97.38913726806641 123.3725662231445 C 96.96186065673828 122.5736999511719 96.71799468994141 121.6617050170898 96.71799468994141 120.6922760009766 C 96.71799468994141 117.548713684082 99.26671600341797 115 102.410285949707 115 C 105.5538558959961 115 108.1025695800781 117.548713684082 108.1025695800781 120.6922760009766 C 108.1025695800781 121.6617050170898 107.8587112426758 122.5736999511719 107.4314270019531 123.3725662231445 L 107.4318618774414 123.3725662231445 L 107.4309997558594 123.3734359741211 C 106.9000015258789 124.3659973144531 102.410285949707 131.6071472167969 102.410285949707 131.6071472167969 Z" stroke="none" fill="#00086f"/>
    </g>
    <g id="Ellipse_808" data-name="Ellipse 808" transform="translate(95.1 117.768)" fill="#fff" stroke="#00086f" stroke-miterlimit="10" stroke-width="1">
      <circle cx="2.9" cy="2.9" r="2.9" stroke="none"/>
      <circle cx="2.9" cy="2.9" r="2.4" fill="none"/>
    </g>
  </g>
</svg>
