<svg xmlns="http://www.w3.org/2000/svg" width="15.73" height="18.544" viewBox="0 0 15.73 18.544">
  <g id="Group_8152" data-name="Group 8152" transform="translate(-260.062 -696.248)">
    <g id="Group_8150" data-name="Group 8150">
      <path id="Path_20905" data-name="Path 20905" d="M275.792,714.792h-15.73V696.248h15.73Zm-14.654-1.076h13.578V697.324H261.138Z" fill="#404040"/>
    </g>
    <rect id="Rectangle_3005" data-name="Rectangle 3005" width="14.653" height="8.734" transform="translate(260.601 705.52)" fill="#404040"/>
    <g id="Group_8151" data-name="Group 8151">
      <path id="Path_20906" data-name="Path 20906" d="M263.7,710.755v1.767h-.909v-5.156h1.5a1.393,1.393,0,0,1,1.105.468,2.047,2.047,0,0,1,0,2.455,1.4,1.4,0,0,1-1.105.466Zm0-.921h.588a.524.524,0,0,0,.451-.214.912.912,0,0,0,.156-.551.958.958,0,0,0-.155-.563.517.517,0,0,0-.452-.219H263.7Z" fill="#fff"/>
      <path id="Path_20907" data-name="Path 20907" d="M266.575,712.522v-5.156h1.435a1.417,1.417,0,0,1,1.156.594,2.387,2.387,0,0,1,.466,1.52v.928a2.391,2.391,0,0,1-.466,1.523,1.42,1.42,0,0,1-1.156.591Zm.909-4.235V711.6h.526a.589.589,0,0,0,.509-.333,1.648,1.648,0,0,0,.2-.861v-.935a1.627,1.627,0,0,0-.2-.853.587.587,0,0,0-.509-.333Z" fill="#fff"/>
      <path id="Path_20908" data-name="Path 20908" d="M272.794,710.447h-1.435v2.075h-.909v-5.156h2.618v.921h-1.709v1.239h1.435Z" fill="#fff"/>
    </g>
  </g>
</svg>
