<svg xmlns="http://www.w3.org/2000/svg" width="9.752" height="9.752" viewBox="0 0 9.752 9.752">
  <g id="Group_12" data-name="Group 12" transform="translate(-1040.978 -303.114)">
    <g id="Group_10" data-name="Group 10">
      <path id="Path_1" data-name="Path 1" d="M1050.033,312.866a.7.7,0,0,1-.7-.7v-7.662h-7.661a.7.7,0,1,1,0-1.393h8.358a.7.7,0,0,1,.7.7v8.358A.7.7,0,0,1,1050.033,312.866Z" fill="#ff1d1d"/>
    </g>
    <g id="Group_11" data-name="Group 11">
      <path id="Path_2" data-name="Path 2" d="M1041.675,312.866a.7.7,0,0,1-.493-1.189l8.359-8.359a.7.7,0,1,1,.984.985l-8.358,8.359A.693.693,0,0,1,1041.675,312.866Z" fill="#ff1d1d"/>
    </g>
  </g>
</svg>
