<svg xmlns="http://www.w3.org/2000/svg" width="18" height="18" viewBox="0 0 18 18">
  <g id="Group_7886" data-name="Group 7886" transform="translate(-303.917 -115)">
    <g id="Ellipse_810" data-name="Ellipse 810" transform="translate(303.917 115)" fill="#fff" stroke="#ff1d1d" stroke-miterlimit="10" stroke-width="1">
      <circle cx="9" cy="9" r="9" stroke="none"/>
      <circle cx="9" cy="9" r="8.5" fill="none"/>
    </g>
    <g id="Ellipse_811" data-name="Ellipse 811" transform="translate(306.452 117.536)" fill="#00086f" stroke="#00086f" stroke-miterlimit="10" stroke-width="1">
      <circle cx="6.464" cy="6.464" r="6.464" stroke="none"/>
      <circle cx="6.464" cy="6.464" r="5.964" fill="none"/>
    </g>
    <g id="Group_7885" data-name="Group 7885" transform="translate(310.326 119.857)">
      <path id="Path_20775" data-name="Path 20775" d="M320.807,128.668h4.707v.011a7.77,7.77,0,0,1-.474.78h-1.253a1.977,1.977,0,0,1,.353.837h1.34c.015,0,.023.011.023.023q-.451.763-.462.769h-.866a2.508,2.508,0,0,1-.329.947,2.207,2.207,0,0,1-.774.727,2.741,2.741,0,0,1-1.3.37v.012a2.155,2.155,0,0,0,.306.456l2.321,3.182v.15c0,.016-.007.023-.023.023h-1.022q-2.761-3.644-2.76-3.661v-.739l.011-.029a3.509,3.509,0,0,0,.572.041,1.775,1.775,0,0,0,1.923-1.138,1.037,1.037,0,0,0,.058-.34h-2.795c-.015,0-.023-.01-.023-.029q.462-.762.474-.762h2.224v-.012a1.376,1.376,0,0,0-.739-.681,2.075,2.075,0,0,0-.7-.144h-1.242v-.029Q320.8,128.667,320.807,128.668Z" transform="translate(-320.333 -128.668)" fill="#fff"/>
    </g>
  </g>
</svg>
