<svg xmlns="http://www.w3.org/2000/svg" width="25" height="25" viewBox="0 0 25 25">
  <g id="Group_7980" data-name="Group 7980" transform="translate(-505.958 -115)">
    <g id="Group_7978" data-name="Group 7978" transform="translate(505.958 115)">
      <g id="Path_20870" data-name="Path 20870" transform="translate(-505.958 -115)" fill="#00086f" stroke-miterlimit="10">
        <path d="M 515.4304809570313 131.7653198242188 L 513.7508544921875 131.7653198242188 L 513.2242431640625 129.9848175048828 L 513.1461181640625 129.7207641601563 L 512.8812255859375 129.6456146240234 C 512.4083251953125 129.5114440917969 511.9587707519531 129.3262023925781 511.5449523925781 129.0950469970703 L 511.3044128417969 128.9606781005859 L 511.0623474121094 129.0922546386719 L 509.4339599609375 129.9772644042969 L 508.2460327148438 128.7893524169922 L 509.1310424804688 127.1609573364258 L 509.2626342773438 126.9188766479492 L 509.1282348632813 126.678352355957 C 508.8971252441406 126.2646026611328 508.7118835449219 125.8150100708008 508.5776977539063 125.3420715332031 L 508.5025329589844 125.0771789550781 L 508.2384948730469 124.9990768432617 L 506.4580078125 124.4724731445313 L 506.4580078125 122.792839050293 L 508.2384948730469 122.2662200927734 L 508.5025329589844 122.188117980957 L 508.5776977539063 121.9232330322266 C 508.7118835449219 121.4502792358398 508.8971252441406 121.0007019042969 509.1282348632813 120.5869827270508 L 509.2626342773438 120.3464431762695 L 509.1310424804688 120.104362487793 L 508.2460327148438 118.4759674072266 L 509.4339599609375 117.2880325317383 L 511.0623474121094 118.1730499267578 L 511.3044128417969 118.3046188354492 L 511.5449523925781 118.1702499389648 C 511.9587707519531 117.9390869140625 512.4083251953125 117.7538604736328 512.8812255859375 117.6196823120117 L 513.1461181640625 117.5445327758789 L 513.2242431640625 117.2804870605469 L 513.7508544921875 115.5 L 515.4304809570313 115.5 L 515.95703125 117.2804718017578 L 516.03515625 117.5445327758789 L 516.300048828125 117.6196899414063 C 516.7728881835938 117.7538299560547 517.2225341796875 117.9390716552734 517.6363525390625 118.1702499389648 L 517.8768920898438 118.3046112060547 L 518.1189575195313 118.1730499267578 L 519.7473754882813 117.2880325317383 L 520.935302734375 118.475959777832 L 520.0502319335938 120.1043472290039 L 519.918701171875 120.3464431762695 L 520.0530395507813 120.5869827270508 C 520.2842407226563 121.0007400512695 520.4694213867188 121.450309753418 520.6035766601563 121.9231872558594 L 520.6787109375 122.1881103515625 L 520.9428100585938 122.2662200927734 L 522.7232666015625 122.792839050293 L 522.7232666015625 124.4724731445313 L 520.9428100585938 124.9990768432617 L 520.6787109375 125.0771789550781 L 520.6035766601563 125.3421096801758 C 520.4694213867188 125.8149871826172 520.2842407226563 126.2645568847656 520.0530395507813 126.678352355957 L 519.918701171875 126.9188766479492 L 520.0502319335938 127.1609725952148 L 520.935302734375 128.7893524169922 L 519.7473754882813 129.9772644042969 L 518.1189575195313 129.0922546386719 L 517.8768920898438 128.960693359375 L 517.6363525390625 129.0950469970703 C 517.2225341796875 129.3262329101563 516.7728881835938 129.511474609375 516.300048828125 129.6456146240234 L 516.03515625 129.7207641601563 L 515.95703125 129.9848327636719 L 515.4304809570313 131.7653198242188 Z" stroke="none"/>
        <path d="M 515.0569458007813 131.2653198242188 L 515.4776000976563 129.8430328369141 L 515.6337890625 129.3148956298828 L 516.1636352539063 129.1645965576172 C 516.59912109375 129.0410461425781 517.0125732421875 128.8707885742188 517.3925170898438 128.6585388183594 L 517.87353515625 128.3898162841797 L 518.3577270507813 128.6529388427734 L 519.657958984375 129.3595886230469 L 520.317626953125 128.6999206542969 L 519.6109619140625 127.3997268676758 L 519.3477783203125 126.9155731201172 L 519.6165771484375 126.4344863891602 C 519.8287963867188 126.0546188354492 519.9990234375 125.6411819458008 520.12255859375 125.2056732177734 L 520.2728271484375 124.6758193969727 L 520.8009643554688 124.5196075439453 L 522.2232666015625 124.0989456176758 L 522.2232666015625 123.1663589477539 L 520.8009643554688 122.7456817626953 L 520.2728271484375 122.5894775390625 L 520.12255859375 122.0596389770508 C 519.9990234375 121.6241226196289 519.8287963867188 121.210693359375 519.6165771484375 120.8308334350586 L 519.3477783203125 120.3497619628906 L 519.6109619140625 119.865592956543 L 520.317626953125 118.5653991699219 L 519.657958984375 117.9057159423828 L 518.3577270507813 118.6123580932617 L 517.87353515625 118.87548828125 L 517.3925170898438 118.6067581176758 C 517.0125732421875 118.3945083618164 516.59912109375 118.224250793457 516.1636352539063 118.1007080078125 L 515.6337890625 117.9504013061523 L 515.4776000976563 117.4222793579102 L 515.0569458007813 116 L 514.1243896484375 116 L 513.7036743164063 117.4223022460938 L 513.5474853515625 117.9503784179688 L 513.0177001953125 118.100700378418 C 512.5821533203125 118.2242736816406 512.168701171875 118.39453125 511.788818359375 118.6067581176758 L 511.3077392578125 118.87548828125 L 510.8236083984375 118.6123580932617 L 509.5234069824219 117.9057159423828 L 508.8637084960938 118.5653991699219 L 509.5703735351563 119.8656005859375 L 509.83349609375 120.3497619628906 L 509.5647583007813 120.8308334350586 C 509.3525695800781 121.2106628417969 509.1823120117188 121.6241226196289 509.0587158203125 122.0597076416016 L 508.9083862304688 122.5894927978516 L 508.3803100585938 122.7456817626953 L 506.9580078125 123.1663589477539 L 506.9580078125 124.0989456176758 L 508.3803100585938 124.5196075439453 L 508.9083862304688 124.6758117675781 L 509.0587158203125 125.2055969238281 C 509.1823120117188 125.6411895751953 509.3525695800781 126.0546493530273 509.5647583007813 126.4344863891602 L 509.83349609375 126.9155578613281 L 509.5703735351563 127.3997192382813 L 508.8637084960938 128.6999206542969 L 509.5234069824219 129.3595886230469 L 510.8236083984375 128.6529388427734 L 511.3077392578125 128.3898162841797 L 511.788818359375 128.6585388183594 C 512.168701171875 128.8707733154297 512.5821533203125 129.0410308837891 513.0177001953125 129.1645965576172 L 513.5474853515625 129.3149261474609 L 513.7036743164063 129.8430023193359 L 514.1243896484375 131.2653198242188 L 515.0569458007813 131.2653198242188 M 515.8040161132813 132.2653198242188 L 513.3773193359375 132.2653198242188 L 512.7447509765625 130.1266326904297 C 512.2371826171875 129.9826202392578 511.7527770996094 129.7838745117188 511.3011169433594 129.5315551757813 L 509.3445434570313 130.5949401855469 L 507.6283569335938 128.8787841796875 L 508.6917419433594 126.9222030639648 C 508.4394226074219 126.4705429077148 508.2406921386719 125.9861526489258 508.0966796875 125.4785461425781 L 505.9580078125 124.8460006713867 L 505.9580078125 122.4193115234375 L 508.0966796875 121.786750793457 C 508.2406921386719 121.2791595458984 508.4394226074219 120.7947692871094 508.6917419433594 120.3431167602539 L 507.6283569335938 118.3865432739258 L 509.3445434570313 116.6703567504883 L 511.3011169433594 117.7337417602539 C 511.7527770996094 117.4814300537109 512.2371826171875 117.2826766967773 512.7447509765625 117.138671875 L 513.3773193359375 115 L 515.8040161132813 115 L 516.4365234375 117.138671875 C 516.9441528320313 117.2826766967773 517.4285278320313 117.4814300537109 517.8801879882813 117.7337417602539 L 519.8367919921875 116.6703567504883 L 521.552978515625 118.3865432739258 L 520.4895629882813 120.3431167602539 C 520.7418823242188 120.7947692871094 520.9406127929688 121.2791595458984 521.0845947265625 121.786750793457 L 523.2232666015625 122.4193115234375 L 523.2232666015625 124.8460006713867 L 521.0845947265625 125.4785461425781 C 520.9406127929688 125.9861526489258 520.7418823242188 126.4705429077148 520.4895629882813 126.9222030639648 L 521.552978515625 128.8787841796875 L 519.8367919921875 130.5949401855469 L 517.8801879882813 129.5315551757813 C 517.4285278320313 129.7838745117188 516.9441528320313 129.9826202392578 516.4365234375 130.1266326904297 L 515.8040161132813 132.2653198242188 Z" stroke="none" fill="#00086f"/>
      </g>
      <g id="Ellipse_819" data-name="Ellipse 819" transform="translate(5.973 5.973)" fill="#fff" stroke="#fff" stroke-miterlimit="10" stroke-width="1">
        <circle cx="2.659" cy="2.659" r="2.659" stroke="none"/>
        <circle cx="2.659" cy="2.659" r="2.159" fill="none"/>
      </g>
    </g>
    <g id="Group_7979" data-name="Group 7979" transform="translate(518.447 127.489)">
      <g id="Path_20871" data-name="Path 20871" transform="translate(-526.946 -135.988)" fill="#ff1d1d" stroke-miterlimit="10">
        <path d="M 532.7435302734375 147.9956970214844 L 532.3817138671875 146.8087158203125 L 532.3014526367188 146.5453186035156 L 532.035888671875 146.4723663330078 C 531.7048950195313 146.3814544677734 531.388671875 146.2539978027344 531.095947265625 146.0935668945313 L 530.8543090820313 145.9611206054688 L 530.61328125 146.0946350097656 L 529.5296630859375 146.6949768066406 L 528.8101196289063 145.987060546875 L 529.3926391601563 144.8938751220703 L 529.5220336914063 144.6509399414063 L 529.3860473632813 144.4116363525391 C 529.2207641601563 144.1209259033203 529.0882568359375 143.8065795898438 528.9921875 143.4773254394531 L 528.9149780273438 143.2127380371094 L 528.6500244140625 143.1367492675781 L 527.4571533203125 142.7946319580078 L 527.448974609375 141.7856140136719 L 528.635986328125 141.4237976074219 L 528.8995361328125 141.3434753417969 L 528.972412109375 141.0778198242188 C 529.0631713867188 140.7471160888672 529.1905517578125 140.4308776855469 529.3511352539063 140.1378936767578 L 529.4835205078125 139.8962860107422 L 529.3500366210938 139.6553039550781 L 528.7496948242188 138.5717163085938 L 529.4576416015625 137.8521575927734 L 530.5508422851563 138.4346466064453 L 530.7937622070313 138.5641021728516 L 531.0330810546875 138.4280395507813 C 531.3237915039063 138.2627563476563 531.6381225585938 138.1302490234375 531.9673461914063 138.0341949462891 L 532.23193359375 137.9570159912109 L 532.3079833984375 137.6920623779297 L 532.6500854492188 136.4992370605469 L 533.6591186523438 136.4910278320313 L 534.0208740234375 137.6779632568359 L 534.1011352539063 137.94140625 L 534.3667602539063 138.0143432617188 C 534.69775390625 138.1052398681641 535.0140380859375 138.2326965332031 535.3068237304688 138.3931732177734 L 535.5484008789063 138.5256042480469 L 535.7894287109375 138.3920745849609 L 536.8729858398438 137.7917327880859 L 537.5925903320313 138.4996490478516 L 537.010009765625 139.5928344726563 L 536.8805541992188 139.8357849121094 L 537.0166625976563 140.0750885009766 C 537.1819458007813 140.3658752441406 537.3145141601563 140.6802215576172 537.4105224609375 141.0093841552734 L 537.4877319335938 141.2739715576172 L 537.7526245117188 141.3499603271484 L 538.9454345703125 141.6920776367188 L 538.9536743164063 142.7011108398438 L 537.7666625976563 143.0629272460938 L 537.5032348632813 143.1432342529297 L 537.4302978515625 143.4088287353516 C 537.3394775390625 143.7396392822266 537.2120361328125 144.0558929443359 537.051513671875 144.3488159179688 L 536.9191284179688 144.5904388427734 L 537.0526123046875 144.8314361572266 L 537.6530151367188 145.9150238037109 L 536.945068359375 146.6345672607422 L 535.851806640625 146.0520629882813 L 535.60888671875 145.9226226806641 L 535.3695678710938 146.0586700439453 C 535.078857421875 146.2239532470703 534.7645263671875 146.3564453125 534.4353637695313 146.4524993896484 L 534.1707153320313 146.5297088623047 L 534.0947265625 146.7946472167969 L 533.7526245117188 147.9874877929688 L 532.7435302734375 147.9956970214844 Z" stroke="none"/>
        <path d="M 533.1129150390625 147.49267578125 L 533.375 147.4905395507813 L 533.6141357421875 146.6567993164063 L 533.76611328125 146.1269073486328 L 534.2952880859375 145.9725189208984 C 534.5872192382813 145.8873443603516 534.8655395507813 145.7700958251953 535.1224365234375 145.6240081787109 L 535.60107421875 145.3518981933594 L 536.0869140625 145.6107940673828 L 536.8505859375 146.0176696777344 L 537.0346069335938 145.8306121826172 L 536.6152954101563 145.0737457275391 L 536.3482055664063 144.5917510986328 L 536.613037109375 144.1085357666016 C 536.7548828125 143.8497161865234 536.8676147460938 143.5697479248047 536.9481811523438 143.2764434814453 L 537.093994140625 142.7452697753906 L 537.6209106445313 142.5846557617188 L 538.4506225585938 142.3317260742188 L 538.448486328125 142.0697021484375 L 537.6148071289063 141.8305816650391 L 537.0848999023438 141.6786041259766 L 536.9305419921875 141.1494293212891 C 536.8453979492188 140.8575592041016 536.7280883789063 140.5792388916016 536.5819702148438 140.3222198486328 L 536.3098754882813 139.8435974121094 L 536.5687866210938 139.3576965332031 L 536.9756469726563 138.5941467285156 L 536.78857421875 138.4101104736328 L 536.03173828125 138.8294372558594 L 535.5497436523438 139.0964965820313 L 535.0664672851563 138.8316192626953 C 534.8078002929688 138.6898498535156 534.52783203125 138.5770874023438 534.2343139648438 138.4964904785156 L 533.7031860351563 138.3506317138672 L 533.5426025390625 137.82373046875 L 533.2897338867188 136.9940490722656 L 533.0277099609375 136.9961853027344 L 532.78857421875 137.8299255371094 L 532.6365966796875 138.3598175048828 L 532.107421875 138.5141906738281 C 531.8154907226563 138.599365234375 531.5371704101563 138.7166137695313 531.2802124023438 138.8627014160156 L 530.8015747070313 139.1348114013672 L 530.315673828125 138.8759155273438 L 529.5521240234375 138.4690551757813 L 529.3681030273438 138.6561279296875 L 529.787353515625 139.4130096435547 L 530.0543823242188 139.8949890136719 L 529.7896118164063 140.3781890869141 C 529.6477661132813 140.6370391845703 529.5350341796875 140.9169464111328 529.45458984375 141.2101287841797 L 529.3087768554688 141.7414245605469 L 528.7817993164063 141.9020690917969 L 527.9520263671875 142.1549835205078 L 527.9541015625 142.4170074462891 L 528.7879028320313 142.6561279296875 L 529.3178100585938 142.8080902099609 L 529.47216796875 143.3372955322266 C 529.557373046875 143.6292572021484 529.6746215820313 143.9075927734375 529.8206787109375 144.1645355224609 L 530.0927734375 144.6431427001953 L 529.8338623046875 145.1289978027344 L 529.427001953125 145.8925628662109 L 529.6140747070313 146.0766143798828 L 530.3709716796875 145.6572875976563 L 530.85302734375 145.3902282714844 L 531.3362426757813 145.6551055908203 C 531.5948486328125 145.7968597412109 531.8748168945313 145.9096069335938 532.1682739257813 145.9902191162109 L 532.6994018554688 146.1361083984375 L 532.8599853515625 146.6629486083984 L 533.1129150390625 147.49267578125 M 532.3741455078125 148.4987182617188 L 531.9034423828125 146.9545135498047 C 531.53515625 146.8533477783203 531.1834716796875 146.7117309570313 530.8555908203125 146.5320129394531 L 529.4452514648438 147.3133392333984 L 528.1932373046875 146.08154296875 L 528.9513549804688 144.6587524414063 C 528.7662963867188 144.3332214355469 528.6193237304688 143.9845275878906 528.51220703125 143.6173706054688 L 526.960205078125 143.1722717285156 L 526.9459838867188 141.4162139892578 L 528.490234375 140.9455108642578 C 528.59130859375 140.5771636962891 528.7329711914063 140.2254791259766 528.9126586914063 139.8975982666016 L 528.13134765625 138.4872894287109 L 529.3631591796875 137.2352600097656 L 530.7859497070313 137.9933776855469 C 531.1114501953125 137.8083190917969 531.4601440429688 137.6613311767578 531.8273315429688 137.5542144775391 L 532.2724609375 136.0022888183594 L 534.0285034179688 135.9880065917969 L 534.4991455078125 137.5321960449219 C 534.8675537109375 137.6333618164063 535.21923828125 137.7749938964844 535.547119140625 137.9547119140625 L 536.9573974609375 137.1733703613281 L 538.20947265625 138.4051666259766 L 537.4512939453125 139.8279724121094 C 537.6363525390625 140.1534729003906 537.7833862304688 140.502197265625 537.8905029296875 140.8693389892578 L 539.4423828125 141.314453125 L 539.4566650390625 143.0704956054688 L 537.9124755859375 143.5411987304688 C 537.8113403320313 143.9095458984375 537.669677734375 144.26123046875 537.489990234375 144.589111328125 L 538.2713623046875 145.9994201660156 L 537.03955078125 147.2514495849609 L 535.61669921875 146.4933319091797 C 535.2911987304688 146.6784057617188 534.9425048828125 146.8253784179688 534.5753784179688 146.9324951171875 L 534.1302490234375 148.4844360351563 L 532.3741455078125 148.4987182617188 Z" stroke="none" fill="#ff1d1d"/>
      </g>
      <g id="Ellipse_820" data-name="Ellipse 820" transform="translate(4.33 4.33)" fill="#fff" stroke="#fff" stroke-miterlimit="10" stroke-width="1">
        <circle cx="1.925" cy="1.925" r="1.925" stroke="none"/>
        <circle cx="1.925" cy="1.925" r="1.425" fill="none"/>
      </g>
    </g>
  </g>
</svg>
