<svg xmlns="http://www.w3.org/2000/svg" width="190" height="44.277" viewBox="0 0 190 44.277">
  <g id="Group_64" data-name="Group 64" transform="translate(-165 -21.051)">
    <g id="Group_62" data-name="Group 62">
      <g id="Group_61" data-name="Group 61">
        <path id="Path_78" data-name="Path 78" d="M184.369,57.031a17.731,17.731,0,0,1-4.2,2.2,12.71,12.71,0,0,1-4.227.719A10.3,10.3,0,0,1,168,56.7a12.216,12.216,0,0,1-3-8.621,11.372,11.372,0,0,1,2.829-8.063,9.692,9.692,0,0,1,7.44-3.045,8.891,8.891,0,0,1,6.9,2.891,10.955,10.955,0,0,1,2.626,7.666v.1h-17.22v.263a10.313,10.313,0,0,0,2.317,7,7.566,7.566,0,0,0,6,2.675,11.728,11.728,0,0,0,4.227-.778,17.686,17.686,0,0,0,4.25-2.448ZM167.891,45.518H181.91a7.515,7.515,0,0,0-2.27-4.682,6.433,6.433,0,0,0-4.562-1.766,6.894,6.894,0,0,0-4.752,1.792A7.514,7.514,0,0,0,167.891,45.518Z" fill="#00086f"/>
        <path id="Path_79" data-name="Path 79" d="M245.7,57.316a14.132,14.132,0,0,1-3.429,2.019,9.225,9.225,0,0,1-3.331.61,6.235,6.235,0,0,1-4.418-1.578,5.316,5.316,0,0,1-1.7-4.083,6.5,6.5,0,0,1,3.308-5.756q3.306-2.1,9.517-2.366v-2.34a4.829,4.829,0,0,0-1.182-3.619A5.3,5.3,0,0,0,240.7,39.07a8.7,8.7,0,0,0-3.223.643,16.126,16.126,0,0,0-3.535,2.055V39.356a16.015,16.015,0,0,1,3.571-1.838,10.168,10.168,0,0,1,3.38-.6q3.795,0,5.493,1.756t1.694,5.72V55.955a2.271,2.271,0,0,0,.193,1.063.633.633,0,0,0,.6.347q.576,0,1.985-1.243c.221-.206.389-.358.5-.453l.026,2.221a10.475,10.475,0,0,1-1.982,1.5,3.432,3.432,0,0,1-1.6.5,1.856,1.856,0,0,1-1.54-.61A3.426,3.426,0,0,1,245.7,57.316Zm-.049-2.293v-6.9a15.21,15.21,0,0,0-7.548,1.72,4.933,4.933,0,0,0-2.77,4.348,3.331,3.331,0,0,0,1.146,2.674,4.7,4.7,0,0,0,3.153.979,6.657,6.657,0,0,0,2.819-.68A15.23,15.23,0,0,0,245.647,55.023Z" fill="#00086f"/>
        <path id="Path_80" data-name="Path 80" d="M274.662,57.031a17.731,17.731,0,0,1-4.2,2.2,12.71,12.71,0,0,1-4.227.719,10.3,10.3,0,0,1-7.942-3.249,12.216,12.216,0,0,1-3-8.621,11.372,11.372,0,0,1,2.829-8.063,9.692,9.692,0,0,1,7.44-3.045,8.891,8.891,0,0,1,6.9,2.891,10.959,10.959,0,0,1,2.626,7.666v.1h-17.22v.263a10.313,10.313,0,0,0,2.317,7,7.566,7.566,0,0,0,6,2.675,11.731,11.731,0,0,0,4.227-.778,17.685,17.685,0,0,0,4.25-2.448ZM258.184,45.518H272.2a7.515,7.515,0,0,0-2.27-4.682,6.433,6.433,0,0,0-4.562-1.766,6.894,6.894,0,0,0-4.752,1.792A7.51,7.51,0,0,0,258.184,45.518Z" fill="#00086f"/>
        <path id="Path_81" data-name="Path 81" d="M280.583,55.453a13.586,13.586,0,0,0,3.3,1.66,10.431,10.431,0,0,0,3.295.538,5.1,5.1,0,0,0,3.344-1,3.369,3.369,0,0,0,1.218-2.747q0-2.552-4.443-4.178c-.762-.288-1.359-.509-1.789-.669a8.579,8.579,0,0,1-3.656-2.471,5.9,5.9,0,0,1,.729-7.965,7.4,7.4,0,0,1,5.05-1.7,10.019,10.019,0,0,1,2.9.453,14.158,14.158,0,0,1,3.092,1.409v2.533a15.462,15.462,0,0,0-3.2-1.612,8.861,8.861,0,0,0-2.963-.538,4.845,4.845,0,0,0-3.223,1.063,3.383,3.383,0,0,0-1.266,2.711,3.1,3.1,0,0,0,1.158,2.448,14.371,14.371,0,0,0,4.312,2.09,11.313,11.313,0,0,1,4.585,2.544,5.179,5.179,0,0,1,1.243,3.617,5.79,5.79,0,0,1-1.949,4.621,7.872,7.872,0,0,1-5.336,1.686,11.174,11.174,0,0,1-3.285-.479,12.923,12.923,0,0,1-3.117-1.457Z" fill="#00086f"/>
        <path id="Path_82" data-name="Path 82" d="M304.3,54.044a4.853,4.853,0,0,0,.61,2.938,2.746,2.746,0,0,0,2.183.715,5.7,5.7,0,0,0,1.7-.273,11.867,11.867,0,0,0,1.982-.849v2.412a11.062,11.062,0,0,1-2.018.682,8.854,8.854,0,0,1-1.992.227q-2.749,0-3.87-1.313T301.769,54V39.451h-4.706V37.4h4.8V32.359l1.861-2.15h.575V37.4h5.923v2.054H304.3Z" fill="#00086f"/>
        <path id="Path_83" data-name="Path 83" d="M333.816,57.031a17.731,17.731,0,0,1-4.2,2.2,12.706,12.706,0,0,1-4.227.719,10.292,10.292,0,0,1-7.941-3.249,12.212,12.212,0,0,1-3-8.621,11.377,11.377,0,0,1,2.829-8.063,9.692,9.692,0,0,1,7.44-3.045,8.891,8.891,0,0,1,6.9,2.891,10.955,10.955,0,0,1,2.626,7.666v.1H317.027v.263a10.308,10.308,0,0,0,2.317,7,7.564,7.564,0,0,0,5.995,2.675,11.728,11.728,0,0,0,4.227-.778,17.667,17.667,0,0,0,4.25-2.448ZM317.338,45.518h14.02a7.521,7.521,0,0,0-2.271-4.682,6.431,6.431,0,0,0-4.561-1.766,6.893,6.893,0,0,0-4.752,1.792A7.51,7.51,0,0,0,317.338,45.518Z" fill="#00086f"/>
        <path id="Path_84" data-name="Path 84" d="M341.338,59.466V37.4H343.8v5.447a19.049,19.049,0,0,1,3.748-4.492,5.645,5.645,0,0,1,3.535-1.336,4.907,4.907,0,0,1,1.949.406A8.237,8.237,0,0,1,355,38.686l-1.339,2.343a8.934,8.934,0,0,0-1.825-1.195,3.785,3.785,0,0,0-1.588-.383,4.475,4.475,0,0,0-3.009,1.434,21.822,21.822,0,0,0-3.44,4.633V59.466Z" fill="#00086f"/>
      </g>
    </g>
    <g id="Group_63" data-name="Group 63">
      <path id="Path_85" data-name="Path 85" d="M208.706,44.773l-16.345-19.43V59.638h32.548V25.343Z" fill="#ff1d1d"/>
      <rect id="Rectangle_18" data-name="Rectangle 18" width="32.548" height="2.153" transform="translate(192.361 63.175)" fill="#00086f"/>
      <circle id="Ellipse_7" data-name="Ellipse 7" cx="1.615" cy="1.615" r="1.615" transform="translate(190.746 21.051)" fill="#00086f"/>
      <circle id="Ellipse_8" data-name="Ellipse 8" cx="1.615" cy="1.615" r="1.615" transform="translate(223.294 21.051)" fill="#00086f"/>
    </g>
  </g>
</svg>
